  <svg
                  xmlns="http://www.w3.org/2000/svg"
                  xmlns:xlink="http://www.w3.org/1999/xlink"
                  width="146px"
                  height="31px"
                  viewBox="0 0 146 31"
                  version="1.1"
                >
                  <title>ic_iq_logo</title>
                  <defs />
                  <g id="Welcome" stroke="none" stroke-width="1" fill="none" fill-rule="evenodd">
                    <g
                      id="iqex_2_1280_index"
                      transform="translate(-396.000000, -3114.000000)"
                      fill-rule="nonzero"
                    >
                      <g id="ic_iq_logo" transform="translate(396.000000, 3114.000000)">
                        <g id="Group-5">
                          <path
                            d="M42.4765468,7.52551724 C42.1591032,7.52551724 41.855669,7.46375541 41.566235,7.34022989 C41.276801,7.21670436 41.0247172,7.04567159 40.809976,6.82712644 C40.5952349,6.60858128 40.4271787,6.35678303 40.3058034,6.07172414 C40.184428,5.78666524 40.123741,5.47310516 40.123741,5.13103448 C40.123741,4.78896381 40.184428,4.47540372 40.3058034,4.19034483 C40.4271787,3.90528593 40.5952349,3.65348768 40.809976,3.43494253 C41.0247172,3.21639737 41.276801,3.0453646 41.566235,2.92183908 C41.855669,2.79831356 42.1591032,2.73655172 42.4765468,2.73655172 C43.1301072,2.73655172 43.6902934,2.96934633 44.1571223,3.43494253 C44.6239512,3.90053873 44.8573621,4.46589706 44.8573621,5.13103448 C44.8573621,5.79617191 44.6239512,6.36153024 44.1571223,6.82712644 C43.6902934,7.29272263 43.1301072,7.52551724 42.4765468,7.52551724 Z M40.6559233,23.5172414 L40.6559233,9.54942529 L44.3251799,9.54942529 L44.3251799,23.5172414 L40.6559233,23.5172414 Z M57.0205276,23.8308046 L57.0205276,21.8354023 C56.6844107,22.424524 56.1615704,22.9281205 55.4519904,23.3462069 C54.7424105,23.7642933 53.8647855,23.9733333 52.8190887,23.9733333 C51.9414505,23.9733333 51.1058393,23.7880478 50.3122302,23.4174713 C49.5186211,23.0468947 48.8183883,22.5337964 48.2115108,21.8781609 C47.6046333,21.2225255 47.1238066,20.4386253 46.7690168,19.5264368 C46.414227,18.6142483 46.2368345,17.6165571 46.2368345,16.5333333 C46.2368345,15.4501095 46.414227,14.4524184 46.7690168,13.5402299 C47.1238066,12.6280414 47.6046333,11.8441412 48.2115108,11.1885057 C48.8183883,10.5328703 49.5186211,10.019772 50.3122302,9.6491954 C51.1058393,9.27861884 51.9414505,9.09333333 52.8190887,9.09333333 C53.8647855,9.09333333 54.7424105,9.30237339 55.4519904,9.72045977 C56.1615704,10.1385462 56.6844107,10.6421426 57.0205276,11.2312644 L57.0205279,9.54942529 L60.6897842,9.54942529 L60.6897842,29.6744828 L57.0205276,29.6744828 L57.0205276,23.8308046 Z M53.5753477,20.5241379 C54.0608499,20.5241379 54.5230033,20.4338706 54.9618225,20.2533333 C55.4006418,20.072796 55.7881038,19.811496 56.1242206,19.4694253 C56.4603375,19.1273546 56.731094,18.7092745 56.9364988,18.2151724 C57.1419036,17.7210703 57.2446043,17.1604629 57.2446043,16.5333333 C57.2446043,15.9062038 57.1419036,15.3455963 56.9364988,14.8514943 C56.731094,14.3573922 56.4603375,13.9393121 56.1242206,13.5972414 C55.7881038,13.2551707 55.4006418,12.9938706 54.9618225,12.8133333 C54.5230033,12.632796 54.0608499,12.5425287 53.5753477,12.5425287 C53.0898456,12.5425287 52.6276922,12.6375469 52.1888729,12.8275862 C51.7500536,13.0176255 51.3625917,13.2836765 51.0264748,13.6257471 C50.690358,13.9678178 50.4196015,14.3858979 50.2141966,14.88 C50.0087918,15.3741021 49.9060911,15.9252077 49.9060911,16.5333333 C49.9060911,17.141459 50.0087918,17.6925646 50.2141966,18.1866667 C50.4196015,18.6807688 50.690358,19.0988489 51.0264748,19.4409195 C51.3625917,19.7829902 51.7500536,20.0490412 52.1888729,20.2390805 C52.6276922,20.4291197 53.0898456,20.5241379 53.5753477,20.5241379 Z M75.3247962,9.09333333 C76.3891659,9.09333333 77.3648237,9.27861884 78.2517986,9.6491954 C79.1387734,10.019772 79.9043614,10.5328703 80.5485851,11.1885057 C81.1928089,11.8441412 81.6969767,12.6280414 82.0611031,13.5402299 C82.4252296,14.4524184 82.6072902,15.4501095 82.6072902,16.5333333 C82.6072902,17.6165571 82.4252296,18.6142483 82.0611031,19.5264368 C81.6969767,20.4386253 81.1928089,21.2225255 80.5485851,21.8781609 C79.9043614,22.5337964 79.1387734,23.0468947 78.2517986,23.4174713 C77.3648237,23.7880478 76.3891659,23.9733333 75.3247962,23.9733333 C74.2604264,23.9733333 73.2847686,23.7880478 72.3977938,23.4174713 C71.5108189,23.0468947 70.745231,22.5337964 70.1010072,21.8781609 C69.4567834,21.2225255 68.9526157,20.4386253 68.5884892,19.5264368 C68.2243628,18.6142483 68.0423022,17.6165571 68.0423022,16.5333333 C68.0423022,15.4501095 68.2243628,14.4524184 68.5884892,13.5402299 C68.9526157,12.6280414 69.4567834,11.8441412 70.1010072,11.1885057 C70.745231,10.5328703 71.5108189,10.019772 72.3977938,9.6491954 C73.2847686,9.27861884 74.2604264,9.09333333 75.3247962,9.09333333 Z M75.3247962,20.5241379 C75.791625,20.5241379 76.2444421,20.4338706 76.6832614,20.2533333 C77.1220807,20.072796 77.5095426,19.811496 77.8456595,19.4694253 C78.1817763,19.1273546 78.4478647,18.7092745 78.6439329,18.2151724 C78.8400011,17.7210703 78.9380336,17.1604629 78.9380336,16.5333333 C78.9380336,15.9062038 78.8400011,15.3455963 78.6439329,14.8514943 C78.4478647,14.3573922 78.1817763,13.9393121 77.8456595,13.5972414 C77.5095426,13.2551707 77.1220807,12.9938706 76.6832614,12.8133333 C76.2444421,12.632796 75.791625,12.5425287 75.3247962,12.5425287 C74.839294,12.5425287 74.3818088,12.632796 73.9523261,12.8133333 C73.5228435,12.9938706 73.1400497,13.2551707 72.8039329,13.5972414 C72.467816,13.9393121 72.2017277,14.3573922 72.0056595,14.8514943 C71.8095913,15.3455963 71.7115588,15.9062038 71.7115588,16.5333333 C71.7115588,17.1604629 71.8095913,17.7210703 72.0056595,18.2151724 C72.2017277,18.7092745 72.467816,19.1273546 72.8039329,19.4694253 C73.1400497,19.811496 73.5228435,20.072796 73.9523261,20.2533333 C74.3818088,20.4338706 74.839294,20.5241379 75.3247962,20.5241379 Z M84.1828297,9.54942529 L87.8520909,9.54942529 L87.8520909,11.2312644 C88.1882077,10.6421426 88.7110435,10.1385462 89.4206235,9.72045977 C90.1302035,9.30237339 91.0078284,9.09333333 92.0535252,9.09333333 C92.9311634,9.09333333 93.7667746,9.27861884 94.5603837,9.6491954 C95.3539928,10.019772 96.0542256,10.5328703 96.6611031,11.1885057 C97.2679807,11.8441412 97.7488073,12.6280414 98.1035971,13.5402299 C98.4583869,14.4524184 98.6357794,15.4501095 98.6357794,16.5333333 C98.6357794,17.6165571 98.4583869,18.6142483 98.1035971,19.5264368 C97.7488073,20.4386253 97.2679807,21.2225255 96.6611031,21.8781609 C96.0542256,22.5337964 95.3539928,23.0468947 94.5603837,23.4174713 C93.7667746,23.7880478 92.9311634,23.9733333 92.0535252,23.9733333 C91.0078284,23.9733333 90.1302035,23.7642933 89.4206235,23.3462069 C88.7110435,22.9281205 88.1882032,22.424524 87.8520863,21.8354023 L87.8520863,23.8308046 L87.8520863,29.6744828 L84.1828297,29.6744828 L84.1828297,9.54942529 Z M91.2972662,20.5241379 C91.7827684,20.5241379 92.2449217,20.4291197 92.683741,20.2390805 C93.1225603,20.0490412 93.5100222,19.7829902 93.8461391,19.4409195 C94.1822559,19.0988489 94.4530124,18.6807688 94.6584173,18.1866667 C94.8638221,17.6925646 94.9665228,17.141459 94.9665228,16.5333333 C94.9665228,15.9252077 94.8638221,15.3741021 94.6584173,14.88 C94.4530124,14.3858979 94.1822559,13.9678178 93.8461391,13.6257471 C93.5100222,13.2836765 93.1225603,13.0176255 92.683741,12.8275862 C92.2449217,12.6375469 91.7827684,12.5425287 91.2972662,12.5425287 C90.811764,12.5425287 90.3496106,12.632796 89.9107914,12.8133333 C89.4719721,12.9938706 89.0845101,13.2551707 88.7483933,13.5972414 C88.4122764,13.9393121 88.14152,14.3573922 87.9361151,14.8514943 C87.7307103,15.3455963 87.6280096,15.9062038 87.6280096,16.5333333 C87.6280096,17.1604629 87.7307103,17.7210703 87.9361151,18.2151724 C88.14152,18.7092745 88.4122764,19.1273546 88.7483933,19.4694253 C89.0845101,19.811496 89.4719721,20.072796 89.9107914,20.2533333 C90.3496106,20.4338706 90.811764,20.5241379 91.2972662,20.5241379 Z M101.415731,12.742069 L99.0069065,12.742069 L99.0069065,9.54942529 L101.415731,9.54942529 L101.415731,5.27356322 L105.084988,5.27356322 L105.084988,9.54942529 L108.446139,9.54942529 L108.446139,12.742069 L105.084988,12.742069 L105.084988,18.1581609 C105.084988,18.4812277 105.117665,18.780535 105.183022,19.056092 C105.248378,19.3316489 105.37442,19.5644435 105.561151,19.7544828 C105.822575,20.0585456 106.196033,20.2105747 106.681535,20.2105747 C106.998978,20.2105747 107.251062,20.1773183 107.437794,20.1108046 C107.624525,20.0442909 107.801918,19.9540236 107.969976,19.84 L109.006331,23.1181609 C108.576848,23.3272041 108.114695,23.4839842 107.619856,23.5885057 C107.125018,23.6930273 106.578836,23.7452874 105.981295,23.7452874 C105.290388,23.7452874 104.669515,23.6360164 104.118657,23.4174713 C103.567799,23.1989261 103.105645,22.8996188 102.732182,22.5195402 C101.854544,21.6643635 101.415731,20.4481305 101.415731,18.8708046 L101.415731,12.742069 Z M112.794628,7.52551724 C112.477185,7.52551724 112.173751,7.46375541 111.884317,7.34022989 C111.594883,7.21670436 111.342799,7.04567159 111.128058,6.82712644 C110.913316,6.60858128 110.74526,6.35678303 110.623885,6.07172414 C110.50251,5.78666524 110.441823,5.47310516 110.441823,5.13103448 C110.441823,4.78896381 110.50251,4.47540372 110.623885,4.19034483 C110.74526,3.90528593 110.913316,3.65348768 111.128058,3.43494253 C111.342799,3.21639737 111.594883,3.0453646 111.884317,2.92183908 C112.173751,2.79831356 112.477185,2.73655172 112.794628,2.73655172 C113.448189,2.73655172 114.008375,2.96934633 114.475204,3.43494253 C114.942033,3.90053873 115.175444,4.46589706 115.175444,5.13103448 C115.175444,5.79617191 114.942033,6.36153024 114.475204,6.82712644 C114.008375,7.29272263 113.448189,7.52551724 112.794628,7.52551724 Z M110.974005,23.5172414 L110.974005,9.54942529 L114.643261,9.54942529 L114.643261,23.5172414 L110.974005,23.5172414 Z M123.83741,9.09333333 C124.90178,9.09333333 125.877438,9.27861884 126.764412,9.6491954 C127.651387,10.019772 128.416975,10.5328703 129.061199,11.1885057 C129.705423,11.8441412 130.209591,12.6280414 130.573717,13.5402299 C130.937843,14.4524184 131.119904,15.4501095 131.119904,16.5333333 C131.119904,17.6165571 130.937843,18.6142483 130.573717,19.5264368 C130.209591,20.4386253 129.705423,21.2225255 129.061199,21.8781609 C128.416975,22.5337964 127.651387,23.0468947 126.764412,23.4174713 C125.877438,23.7880478 124.90178,23.9733333 123.83741,23.9733333 C122.77304,23.9733333 121.797383,23.7880478 120.910408,23.4174713 C120.023433,23.0468947 119.257845,22.5337964 118.613621,21.8781609 C117.969397,21.2225255 117.46523,20.4386253 117.101103,19.5264368 C116.736977,18.6142483 116.554916,17.6165571 116.554916,16.5333333 C116.554916,15.4501095 116.736977,14.4524184 117.101103,13.5402299 C117.46523,12.6280414 117.969397,11.8441412 118.613621,11.1885057 C119.257845,10.5328703 120.023433,10.019772 120.910408,9.6491954 C121.797383,9.27861884 122.77304,9.09333333 123.83741,9.09333333 Z M123.83741,20.5241379 C124.304239,20.5241379 124.757056,20.4338706 125.195875,20.2533333 C125.634695,20.072796 126.022157,19.811496 126.358273,19.4694253 C126.69439,19.1273546 126.960479,18.7092745 127.156547,18.2151724 C127.352615,17.7210703 127.450647,17.1604629 127.450647,16.5333333 C127.450647,15.9062038 127.352615,15.3455963 127.156547,14.8514943 C126.960479,14.3573922 126.69439,13.9393121 126.358273,13.5972414 C126.022157,13.2551707 125.634695,12.9938706 125.195875,12.8133333 C124.757056,12.632796 124.304239,12.5425287 123.83741,12.5425287 C123.351908,12.5425287 122.894423,12.632796 122.46494,12.8133333 C122.035457,12.9938706 121.652664,13.2551707 121.316547,13.5972414 C120.98043,13.9393121 120.714342,14.3573922 120.518273,14.8514943 C120.322205,15.3455963 120.224173,15.9062038 120.224173,16.5333333 C120.224173,17.1604629 120.322205,17.7210703 120.518273,18.2151724 C120.714342,18.7092745 120.98043,19.1273546 121.316547,19.4694253 C121.652664,19.811496 122.035457,20.072796 122.46494,20.2533333 C122.894423,20.4338706 123.351908,20.5241379 123.83741,20.5241379 Z M136.336689,11.3737931 C136.766171,10.6706478 137.345032,10.1147913 138.073285,9.7062069 C138.801538,9.29762248 139.632481,9.09333333 140.566139,9.09333333 C141.425104,9.09333333 142.181356,9.23586064 142.834916,9.52091954 C143.488476,9.80597844 144.025322,10.2098058 144.445468,10.7324138 C144.865614,11.2550218 145.183053,11.8821419 145.397794,12.6137931 C145.612535,13.3454443 145.719904,14.1578499 145.719904,15.0510345 L145.719904,23.5172414 L142.050647,23.5172414 L142.050647,15.5071264 C142.050647,14.4999183 141.831241,13.7540254 141.392422,13.2694253 C140.953603,12.7848252 140.314057,12.5425287 139.473765,12.5425287 C138.96959,12.5425287 138.526109,12.6517997 138.143309,12.8703448 C137.76051,13.08889 137.433734,13.3834464 137.162974,13.754023 C136.892213,14.1245996 136.686811,14.5616833 136.546763,15.0652874 C136.406714,15.5688914 136.336691,16.1057443 136.336691,16.6758621 L136.336691,23.5172414 L132.667434,23.5172414 L132.667434,9.54942529 L136.336689,9.54942529 L136.336689,11.3737931 Z"
                            id="iq-option"
                            fill="#FFFFFF"
                          />
                          <g id="Group-6">
                            <path
                              d="M15.2302158,31 C6.8187999,31 0,24.0604136 0,15.5 C0,6.93958638 6.8187999,0 15.2302158,0 C23.6416318,0 30.4604317,6.93958638 30.4604317,15.5 C30.4604317,24.0604136 23.6416318,31 15.2302158,31 Z"
                              id="Oval"
                              fill="#FF7700"
                            />
                            <path
                              d="M12.807227,11.4371212 L12.807227,22.0287879 C12.807227,23.0923544 13.6595769,23.9545454 14.7110039,23.9545454 C15.7624309,23.9545454 16.6147809,23.0923544 16.6147809,22.0287879 L16.6147809,11.4371212 C16.6147809,10.3735547 15.7624309,9.51136363 14.7110039,9.51136363 C13.6595769,9.51136363 12.807227,10.3735547 12.807227,11.4371212 Z"
                              id="Rectangle"
                              fill="#FFFFFF"
                            />
                            <path
                              d="M6.5766841,14.975505 L6.5766841,22.0131313 C6.5766841,23.0853447 7.4290341,23.9545454 8.48046108,23.9545454 C9.53188807,23.9545454 10.3842381,23.0853447 10.3842381,22.0131313 L10.3842381,14.975505 C10.3842381,13.9032916 9.53188807,13.0340909 8.48046108,13.0340909 C7.4290341,13.0340909 6.5766841,13.9032916 6.5766841,14.975505 Z"
                              id="Rectangle"
                              fill="#FFFFFF"
                            />
                            <path
                              d="M19.0377698,7.93089679 L19.0377698,22.012285 C19.0377698,23.0849658 19.8901198,23.9545454 20.9415468,23.9545454 C21.9929737,23.9545454 22.8453237,23.0849658 22.8453237,22.012285 L22.8453237,7.93089679 C22.8453237,6.85821598 21.9929737,5.98863637 20.9415468,5.98863637 C19.8901198,5.98863637 19.0377698,6.85821598 19.0377698,7.93089679 Z"
                              id="Rectangle"
                              fill="#FFFFFF"
                            />
                          </g>
                        </g>
                      </g>
                    </g>
                  </g>
                </svg>