<svg width="147" height="20" viewBox="0 0 147 20" fill="none" xmlns="http://www.w3.org/2000/svg">
<path d="M37.2585 19.3041V9.61611H35.6729V6.34246H37.2585V5.38082C37.2585 3.76445 37.7291 2.54706 38.6805 1.73888C39.6319 0.930691 40.9312 0.521484 42.5782 0.521484C43.2841 0.521484 43.9695 0.603326 44.6345 0.767009V4.28619C44.3071 4.18389 43.9286 4.13274 43.5194 4.13274C43.059 4.13274 42.7112 4.24527 42.4759 4.48056C42.2406 4.71586 42.1281 5.01253 42.1281 5.40128V6.34246H44.6345V9.61611H42.1281V19.3041H37.2585Z" fill="white"/>
<path d="M48.655 5.38114C47.8979 5.38114 47.2637 5.14585 46.7624 4.68549C46.2611 4.22513 46.0054 3.64201 46.0054 2.9259C46.0054 2.22002 46.2611 1.62667 46.7624 1.15608C47.2637 0.685489 47.8979 0.450195 48.655 0.450195C49.4018 0.450195 50.0258 0.685489 50.5271 1.15608C51.0284 1.62667 51.2841 2.22002 51.2841 2.9259C51.2841 3.63178 51.0284 4.22513 50.5271 4.68549C50.0156 5.14585 49.3915 5.38114 48.655 5.38114ZM46.2202 19.3044V6.34278H51.0795V19.2942H46.2202V19.3044Z" fill="white"/>
<path d="M53.5859 19.3041V6.34246H58.4657V8.41918C59.3251 6.80281 60.7573 5.99463 62.7522 5.99463C64.0207 5.99463 65.0335 6.40384 65.7905 7.21202C66.5373 8.02021 66.9159 9.20691 66.9159 10.7824V19.3041H62.0361V11.8668C62.0361 10.5471 61.4939 9.8821 60.3992 9.8821C59.1102 9.8821 58.4657 10.6289 58.4657 12.1327V19.2939H53.5859V19.3041Z" fill="white"/>
<path d="M69.1561 19.3047V6.3431H74.0359V8.97226C74.8134 7.06945 76.1945 6.1385 78.1996 6.16919V10.7319C75.4272 10.5784 74.0359 11.448 74.0359 13.3303V19.3047H69.1561Z" fill="white"/>
<path d="M86.4759 19.6217C84.3787 19.6217 82.6498 19.0284 81.2995 17.8519C79.9491 16.6754 79.2637 15.0488 79.2637 12.9824V12.788C79.2637 10.7215 79.9491 9.07442 81.3097 7.8468C82.6703 6.61918 84.3992 6.00537 86.4964 6.00537C88.5731 6.00537 90.2918 6.60895 91.6524 7.81611C93.0027 9.02327 93.6882 10.6396 93.6882 12.6754V12.8698C93.6882 14.9465 93.0027 16.5936 91.6421 17.811C90.2815 19.0182 88.5526 19.6217 86.4759 19.6217ZM86.4964 16.0309C87.9797 16.0309 88.7265 14.9875 88.7265 12.8801V12.7061C88.7265 10.6294 87.9797 9.58593 86.4964 9.58593C84.9619 9.58593 84.1946 10.5987 84.1946 12.6345V12.8289C84.1946 14.967 84.9619 16.0309 86.4964 16.0309Z" fill="white"/>
<path d="M101.985 19.6217C99.8877 19.6217 98.1588 19.0284 96.8084 17.8519C95.458 16.6754 94.7726 15.0488 94.7726 12.9824V12.788C94.7726 10.7215 95.458 9.07442 96.8186 7.8468C98.1792 6.61918 99.9081 6.00537 102.005 6.00537C104.082 6.00537 105.801 6.60895 107.161 7.81611C108.512 9.02327 109.197 10.6396 109.197 12.6754V12.8698C109.197 14.9465 108.512 16.5936 107.151 17.811C105.78 19.0182 104.062 19.6217 101.985 19.6217ZM102.005 16.0309C103.489 16.0309 104.235 14.9875 104.235 12.8801V12.7061C104.235 10.6294 103.489 9.58593 102.005 9.58593C100.471 9.58593 99.7035 10.5987 99.7035 12.6345V12.8289C99.7035 14.967 100.471 16.0309 102.005 16.0309Z" fill="white"/>
<path d="M110.895 19.3041V6.34246H115.775V8.32711C116.686 6.77212 118.046 5.99463 119.857 5.99463C121.555 5.99463 122.711 6.69028 123.325 8.07136C124.399 6.68005 125.821 5.99463 127.581 5.99463C128.849 5.99463 129.872 6.40384 130.64 7.22225C131.407 8.04067 131.796 9.21714 131.796 10.7517V19.2939H126.936V11.6417C126.936 11.079 126.803 10.6494 126.548 10.3527C126.292 10.056 125.934 9.90256 125.473 9.90256C124.931 9.90256 124.512 10.0765 124.215 10.4141C123.918 10.7517 123.765 11.2325 123.765 11.8668V19.2939H118.936V11.6417C118.936 11.079 118.803 10.6494 118.537 10.3527C118.271 10.056 117.924 9.90256 117.494 9.90256C116.931 9.90256 116.502 10.0765 116.205 10.4141C115.908 10.7517 115.755 11.2325 115.755 11.8668V19.2939H110.895V19.3041Z" fill="white"/>
<path d="M143.836 18.4963C142.762 19.2431 141.269 19.6216 139.356 19.6216C137.443 19.6216 135.949 19.2329 134.895 18.4656C133.842 17.6983 133.289 16.5833 133.258 15.1306H137.719C137.801 15.5909 137.954 15.9285 138.189 16.1434C138.425 16.3582 138.803 16.4605 139.325 16.4605C140.235 16.4605 140.686 16.1536 140.686 15.5398C140.686 15.2431 140.522 15.018 140.194 14.8544C139.867 14.7009 139.274 14.5577 138.414 14.4452C136.614 14.2508 135.325 13.8518 134.547 13.2585C133.77 12.6651 133.381 11.6932 133.381 10.3326C133.381 8.91062 133.923 7.82622 135.008 7.07942C136.092 6.33262 137.473 5.9541 139.161 5.9541C142.844 5.9541 144.819 7.38633 145.084 10.2405H140.696C140.542 9.43236 140.061 9.02315 139.233 9.02315C138.374 9.02315 137.944 9.31983 137.944 9.91318C137.944 10.2099 138.097 10.4247 138.414 10.5679C138.732 10.7111 139.243 10.8237 139.98 10.9055C141.944 11.1408 143.345 11.55 144.194 12.1331C145.033 12.7162 145.453 13.6881 145.453 15.0487C145.453 16.6037 144.911 17.7495 143.836 18.4963Z" fill="white"/>
<path d="M10.4655 6.32255H19.6727V2.61923C19.6727 1.70874 18.9361 0.972168 18.0256 0.972168H2.3121C1.40161 0.972168 0.665039 1.70874 0.665039 2.61923V12.3788C0.665039 13.2893 1.40161 14.0259 2.3121 14.0259H8.81849V7.97984C8.81849 7.06935 9.55506 6.32255 10.4655 6.32255Z" fill="#FF0100"/>
<path d="M26.1792 6.32275H19.6728V12.379C19.6728 13.2895 18.9362 14.0261 18.0258 14.0261H8.8186V17.7294C8.8186 18.6399 9.55518 19.3765 10.4657 19.3765H26.1792C27.0897 19.3765 27.8263 18.6399 27.8263 17.7294V7.98004C27.8263 7.06956 27.0795 6.32275 26.1792 6.32275Z" fill="#00A4FF"/>
<path d="M19.6728 12.379V6.32275H10.4657C9.55518 6.32275 8.8186 7.05933 8.8186 7.96981V14.0261H18.0258C18.926 14.0261 19.6728 13.2895 19.6728 12.379Z" fill="black"/>
</svg>
